<svg width="18" height="20" viewBox="0 0 18 20" fill="none" xmlns="http://www.w3.org/2000/svg">
<path d="M16.0821 2.26416H15.4973V16.6313C15.4973 17.5858 14.7204 18.3627 13.7659 18.3627H7.84069H3.12891V18.8953C3.12891 19.5052 3.62389 20.0001 4.23375 20.0001H10.1569H16.08C16.6899 20.0001 17.1849 19.5052 17.1849 18.8953V3.36901C17.1849 2.75915 16.692 2.26416 16.0821 2.26416Z" fill="#5D6C7B"/>
<path d="M7.84036 17.736H13.7635C14.3734 17.736 14.8684 17.241 14.8684 16.6312V2.26399V1.10485C14.8684 0.494987 14.3734 0 13.7635 0H7.84036H5.87085V0.365497C5.87501 0.403091 5.87712 0.442774 5.87712 0.482456V2.89056V3.50877C5.87712 4.36717 5.17954 5.06474 4.32114 5.06474H3.70293H1.29482C1.26349 5.06474 1.23008 5.06266 1.19875 5.06057H0.814453V16.6312C0.814453 17.241 1.30944 17.736 1.9193 17.736H3.13066H7.84036ZM8.06383 13.9808H4.20209C3.91387 13.9808 3.67995 13.7468 3.67995 13.4586C3.67995 13.1704 3.91387 12.9365 4.20209 12.9365H8.06592C8.35414 12.9365 8.58806 13.1704 8.58806 13.4586C8.58806 13.7468 8.35206 13.9808 8.06383 13.9808ZM11.9277 11.3158H4.20209C3.91387 11.3158 3.67995 11.0819 3.67995 10.7937C3.67995 10.5054 3.91387 10.2715 4.20209 10.2715H11.9277C12.2159 10.2715 12.4498 10.5054 12.4498 10.7937C12.4498 11.0819 12.2159 11.3158 11.9277 11.3158ZM4.20209 7.44152H11.9277C12.2159 7.44152 12.4498 7.67544 12.4498 7.96366C12.4498 8.25188 12.2159 8.4858 11.9277 8.4858H4.20209C3.91387 8.4858 3.67995 8.25188 3.67995 7.96366C3.67995 7.67544 3.91387 7.44152 4.20209 7.44152Z" fill="#5D6C7B"/>
<path d="M1.295 4.43807H4.32131C4.3234 4.43807 4.32758 4.43807 4.32967 4.43807C4.8351 4.43389 5.24445 4.02454 5.24863 3.51911C5.24863 3.51702 5.24863 3.51284 5.24863 3.51075V0.482349C5.24863 0.202483 5.01889 0.0166016 4.78081 0.0166016C4.66594 0.0166016 4.55107 0.0583727 4.455 0.154446L0.965009 3.64442C0.672612 3.93682 0.879379 4.43807 1.295 4.43807Z" fill="#5D6C7B"/>
</svg>
