<svg width="22" height="16" viewBox="0 0 22 16" fill="none" xmlns="http://www.w3.org/2000/svg">
<path d="M20.7292 6.8822H20.2305L19.4223 3.50151C19.3089 3.0114 18.879 2.66924 18.3751 2.66924H15.0894V2.02441C15.0894 1.19473 14.4145 0.519775 13.5848 0.519775H1.50464C0.674953 0.519732 0 1.19469 0 2.02437V12.041C0 12.8702 0.674953 13.5456 1.50464 13.5456H2.73629C3.02345 14.6569 4.03459 15.4802 5.23398 15.4802C6.43341 15.4802 7.44451 14.6569 7.73167 13.5456H14.6122C14.8993 14.6569 15.9105 15.4802 17.1099 15.4802C18.3092 15.4802 19.3204 14.6569 19.6075 13.5456H20.4953C21.325 13.5456 21.9999 12.8707 21.9999 12.041V8.153C22 7.45227 21.43 6.8822 20.7292 6.8822V6.8822ZM18.2053 3.95891L18.9043 6.8822H15.0894V3.95891H18.2053ZM1.28971 12.041V10.1546H2.66002C3.01615 10.1546 3.30486 9.86591 3.30486 9.50978C3.30486 9.15366 3.01615 8.86495 2.66002 8.86495H1.28971V2.02437C1.28971 1.90573 1.386 1.80944 1.50464 1.80944H13.5847C13.7034 1.80944 13.7997 1.90573 13.7997 2.02437V12.2559H7.73171C7.44455 11.1446 6.43341 10.3214 5.23402 10.3214C4.03459 10.3214 3.0235 11.1446 2.73634 12.2559H1.50464C1.386 12.2559 1.28971 12.1592 1.28971 12.041V12.041ZM5.23398 14.1905C4.5228 14.1905 3.94427 13.6112 3.94427 12.9007C3.94427 11.5858 5.69254 11.1201 6.35039 12.2559C6.58023 12.6503 6.58281 13.1452 6.35039 13.5456C6.12691 13.9308 5.71033 14.1905 5.23398 14.1905V14.1905ZM17.1099 14.1905C16.1174 14.1905 15.4982 13.109 15.9934 12.2559C16.6538 11.1158 18.3996 11.589 18.3996 12.9007C18.3996 13.6083 17.8235 14.1905 17.1099 14.1905ZM20.7103 12.041C20.7103 12.1596 20.614 12.2559 20.4954 12.2559H19.6076C19.3205 11.1446 18.3093 10.3214 17.1099 10.3214C16.2927 10.3214 15.5627 10.7035 15.0894 11.299V8.17186H20.7103V12.041H20.7103Z" fill="#282739"/>
<path d="M6.21079 8.80871C6.45107 9.08341 6.87131 9.10417 7.13746 8.85439L10.0178 6.15118C10.2774 5.90746 10.2904 5.49939 10.0467 5.23969C9.80302 4.98003 9.39495 4.96705 9.1352 5.21077L6.74184 7.45692L5.99934 6.60803C5.76486 6.33994 5.35748 6.31274 5.08944 6.54718C4.8214 6.78166 4.79416 7.18905 5.02859 7.45709L6.21079 8.80871Z" fill="#282739"/>
</svg>
